<mxfile host="app.diagrams.net" agent="Mozilla/5.0 (Windows NT 10.0; Win64; x64; rv:129.0) Gecko/20100101 Firefox/129.0" version="24.7.7">
  <diagram name="Page-1" id="j6fQeuB-YdWulxzjne1N">
    <mxGraphModel dx="2511" dy="775" grid="1" gridSize="10" guides="1" tooltips="1" connect="1" arrows="1" fold="1" page="1" pageScale="1" pageWidth="850" pageHeight="1100" math="0" shadow="0">
      <root>
        <mxCell id="0" />
        <mxCell id="1" parent="0" />
        <mxCell id="gJLsM6TIpu4voqHx21hf-7" style="rounded=0;orthogonalLoop=1;jettySize=auto;html=1;entryX=1;entryY=0.5;entryDx=0;entryDy=0;endArrow=none;endFill=0;" parent="1" source="gJLsM6TIpu4voqHx21hf-1" target="gJLsM6TIpu4voqHx21hf-6" edge="1">
          <mxGeometry relative="1" as="geometry" />
        </mxCell>
        <mxCell id="gJLsM6TIpu4voqHx21hf-1" value="UsuÃ¡rio" style="shape=umlActor;verticalLabelPosition=bottom;verticalAlign=top;html=1;" parent="1" vertex="1">
          <mxGeometry x="420" y="160" width="30" height="60" as="geometry" />
        </mxCell>
        <mxCell id="gJLsM6TIpu4voqHx21hf-24" style="edgeStyle=orthogonalEdgeStyle;rounded=0;orthogonalLoop=1;jettySize=auto;html=1;entryX=0;entryY=0.5;entryDx=0;entryDy=0;exitX=0.5;exitY=0;exitDx=0;exitDy=0;exitPerimeter=0;" parent="1" source="gJLsM6TIpu4voqHx21hf-2" target="gJLsM6TIpu4voqHx21hf-6" edge="1">
          <mxGeometry relative="1" as="geometry" />
        </mxCell>
        <mxCell id="gJLsM6TIpu4voqHx21hf-2" value="Aluno" style="shape=umlActor;verticalLabelPosition=bottom;verticalAlign=top;html=1;" parent="1" vertex="1">
          <mxGeometry x="180" y="380" width="30" height="60" as="geometry" />
        </mxCell>
        <mxCell id="gJLsM6TIpu4voqHx21hf-25" style="edgeStyle=orthogonalEdgeStyle;rounded=0;orthogonalLoop=1;jettySize=auto;html=1;entryX=0;entryY=0.5;entryDx=0;entryDy=0;exitX=0.5;exitY=0;exitDx=0;exitDy=0;exitPerimeter=0;" parent="1" source="gJLsM6TIpu4voqHx21hf-3" target="gJLsM6TIpu4voqHx21hf-6" edge="1">
          <mxGeometry relative="1" as="geometry" />
        </mxCell>
        <mxCell id="gJLsM6TIpu4voqHx21hf-32" style="rounded=0;orthogonalLoop=1;jettySize=auto;html=1;entryX=1;entryY=0;entryDx=0;entryDy=0;endArrow=none;endFill=0;" parent="1" source="gJLsM6TIpu4voqHx21hf-3" target="gJLsM6TIpu4voqHx21hf-30" edge="1">
          <mxGeometry relative="1" as="geometry" />
        </mxCell>
        <mxCell id="gJLsM6TIpu4voqHx21hf-3" value="&lt;div&gt;Orientador&lt;/div&gt;" style="shape=umlActor;verticalLabelPosition=bottom;verticalAlign=top;html=1;" parent="1" vertex="1">
          <mxGeometry x="340" y="380" width="30" height="60" as="geometry" />
        </mxCell>
        <mxCell id="gJLsM6TIpu4voqHx21hf-26" style="edgeStyle=orthogonalEdgeStyle;rounded=0;orthogonalLoop=1;jettySize=auto;html=1;entryX=0;entryY=0.5;entryDx=0;entryDy=0;exitX=0.5;exitY=0;exitDx=0;exitDy=0;exitPerimeter=0;" parent="1" source="gJLsM6TIpu4voqHx21hf-4" target="gJLsM6TIpu4voqHx21hf-6" edge="1">
          <mxGeometry relative="1" as="geometry" />
        </mxCell>
        <mxCell id="gJLsM6TIpu4voqHx21hf-4" value="Coordenador" style="shape=umlActor;verticalLabelPosition=bottom;verticalAlign=top;html=1;" parent="1" vertex="1">
          <mxGeometry x="740" y="380" width="30" height="60" as="geometry" />
        </mxCell>
        <mxCell id="gJLsM6TIpu4voqHx21hf-27" style="edgeStyle=orthogonalEdgeStyle;rounded=0;orthogonalLoop=1;jettySize=auto;html=1;entryX=0;entryY=0.5;entryDx=0;entryDy=0;exitX=0.5;exitY=0;exitDx=0;exitDy=0;exitPerimeter=0;" parent="1" source="gJLsM6TIpu4voqHx21hf-5" target="gJLsM6TIpu4voqHx21hf-6" edge="1">
          <mxGeometry relative="1" as="geometry" />
        </mxCell>
        <mxCell id="gJLsM6TIpu4voqHx21hf-5" value="&lt;div&gt;Professor&lt;/div&gt;" style="shape=umlActor;verticalLabelPosition=bottom;verticalAlign=top;html=1;" parent="1" vertex="1">
          <mxGeometry x="530" y="380" width="30" height="60" as="geometry" />
        </mxCell>
        <mxCell id="gJLsM6TIpu4voqHx21hf-6" value="" style="triangle;whiteSpace=wrap;html=1;direction=north;" parent="1" vertex="1">
          <mxGeometry x="395" y="270" width="80" height="60" as="geometry" />
        </mxCell>
        <mxCell id="gJLsM6TIpu4voqHx21hf-9" value="Fazer login" style="ellipse;whiteSpace=wrap;html=1;" parent="1" vertex="1">
          <mxGeometry x="465" y="60" width="140" height="70" as="geometry" />
        </mxCell>
        <mxCell id="gJLsM6TIpu4voqHx21hf-11" value="&lt;div&gt;&amp;lt;&amp;lt;CRUD&amp;gt;&amp;gt;&lt;br&gt;&lt;/div&gt;&lt;div&gt;Manter categorias&lt;/div&gt;" style="ellipse;whiteSpace=wrap;html=1;" parent="1" vertex="1">
          <mxGeometry x="670" y="510" width="140" height="70" as="geometry" />
        </mxCell>
        <mxCell id="gJLsM6TIpu4voqHx21hf-12" value="&lt;div&gt;&amp;lt;&amp;lt;CRUD&amp;gt;&amp;gt;&lt;br&gt;&lt;/div&gt;&lt;div&gt;Manter subcategorias&lt;/div&gt;" style="ellipse;whiteSpace=wrap;html=1;" parent="1" vertex="1">
          <mxGeometry x="780" y="580" width="140" height="70" as="geometry" />
        </mxCell>
        <mxCell id="gJLsM6TIpu4voqHx21hf-13" style="rounded=0;orthogonalLoop=1;jettySize=auto;html=1;endArrow=none;endFill=0;entryX=0;entryY=1;entryDx=0;entryDy=0;entryPerimeter=0;" parent="1" source="gJLsM6TIpu4voqHx21hf-11" target="gJLsM6TIpu4voqHx21hf-4" edge="1">
          <mxGeometry relative="1" as="geometry" />
        </mxCell>
        <mxCell id="gJLsM6TIpu4voqHx21hf-14" style="rounded=0;orthogonalLoop=1;jettySize=auto;html=1;endArrow=none;endFill=0;entryX=1;entryY=1;entryDx=0;entryDy=0;entryPerimeter=0;" parent="1" source="gJLsM6TIpu4voqHx21hf-12" target="gJLsM6TIpu4voqHx21hf-4" edge="1">
          <mxGeometry relative="1" as="geometry">
            <mxPoint x="810" y="490" as="targetPoint" />
          </mxGeometry>
        </mxCell>
        <mxCell id="gJLsM6TIpu4voqHx21hf-18" style="rounded=0;orthogonalLoop=1;jettySize=auto;html=1;entryX=1;entryY=0;entryDx=0;entryDy=0;dashed=1;" parent="1" source="gJLsM6TIpu4voqHx21hf-15" target="gJLsM6TIpu4voqHx21hf-17" edge="1">
          <mxGeometry relative="1" as="geometry" />
        </mxCell>
        <mxCell id="gJLsM6TIpu4voqHx21hf-19" value="&amp;lt;&amp;lt;include&amp;gt;&amp;gt;" style="edgeLabel;html=1;align=center;verticalAlign=middle;resizable=0;points=[];" parent="gJLsM6TIpu4voqHx21hf-18" vertex="1" connectable="0">
          <mxGeometry x="-0.2796" y="-3" relative="1" as="geometry">
            <mxPoint y="3" as="offset" />
          </mxGeometry>
        </mxCell>
        <mxCell id="gJLsM6TIpu4voqHx21hf-21" style="rounded=0;orthogonalLoop=1;jettySize=auto;html=1;entryX=1;entryY=1;entryDx=0;entryDy=0;dashed=1;" parent="1" source="gJLsM6TIpu4voqHx21hf-15" target="gJLsM6TIpu4voqHx21hf-20" edge="1">
          <mxGeometry relative="1" as="geometry" />
        </mxCell>
        <mxCell id="gJLsM6TIpu4voqHx21hf-23" value="&amp;lt;&amp;lt;include&amp;gt;&amp;gt;" style="edgeLabel;html=1;align=center;verticalAlign=middle;resizable=0;points=[];" parent="gJLsM6TIpu4voqHx21hf-21" vertex="1" connectable="0">
          <mxGeometry x="-0.0081" relative="1" as="geometry">
            <mxPoint as="offset" />
          </mxGeometry>
        </mxCell>
        <mxCell id="gJLsM6TIpu4voqHx21hf-15" value="Cadastrar TCC" style="ellipse;whiteSpace=wrap;html=1;" parent="1" vertex="1">
          <mxGeometry x="-10" y="360" width="140" height="70" as="geometry" />
        </mxCell>
        <mxCell id="gJLsM6TIpu4voqHx21hf-16" style="rounded=0;orthogonalLoop=1;jettySize=auto;html=1;entryX=0;entryY=0.3333333333333333;entryDx=0;entryDy=0;entryPerimeter=0;endArrow=none;endFill=0;" parent="1" source="gJLsM6TIpu4voqHx21hf-15" target="gJLsM6TIpu4voqHx21hf-2" edge="1">
          <mxGeometry relative="1" as="geometry" />
        </mxCell>
        <mxCell id="gJLsM6TIpu4voqHx21hf-17" value="&lt;div&gt;Indicar orientador&lt;br&gt;&lt;/div&gt;" style="ellipse;whiteSpace=wrap;html=1;" parent="1" vertex="1">
          <mxGeometry x="-180" y="460" width="140" height="70" as="geometry" />
        </mxCell>
        <mxCell id="gJLsM6TIpu4voqHx21hf-20" value="&lt;div&gt;Indicar palavras-chave&lt;br&gt;&lt;/div&gt;" style="ellipse;whiteSpace=wrap;html=1;" parent="1" vertex="1">
          <mxGeometry x="-180" y="270" width="140" height="70" as="geometry" />
        </mxCell>
        <mxCell id="gJLsM6TIpu4voqHx21hf-29" style="rounded=0;orthogonalLoop=1;jettySize=auto;html=1;entryX=0.75;entryY=0.1;entryDx=0;entryDy=0;entryPerimeter=0;endArrow=none;endFill=0;" parent="1" source="gJLsM6TIpu4voqHx21hf-9" target="gJLsM6TIpu4voqHx21hf-1" edge="1">
          <mxGeometry relative="1" as="geometry" />
        </mxCell>
        <mxCell id="gJLsM6TIpu4voqHx21hf-30" value="Indicar banca" style="ellipse;whiteSpace=wrap;html=1;" parent="1" vertex="1">
          <mxGeometry x="125" y="500" width="140" height="70" as="geometry" />
        </mxCell>
        <mxCell id="gJLsM6TIpu4voqHx21hf-31" style="rounded=0;orthogonalLoop=1;jettySize=auto;html=1;entryX=0;entryY=1;entryDx=0;entryDy=0;entryPerimeter=0;endArrow=none;endFill=0;" parent="1" source="gJLsM6TIpu4voqHx21hf-30" target="gJLsM6TIpu4voqHx21hf-2" edge="1">
          <mxGeometry relative="1" as="geometry" />
        </mxCell>
        <mxCell id="gJLsM6TIpu4voqHx21hf-33" value="Pesquisar TCC" style="ellipse;whiteSpace=wrap;html=1;" parent="1" vertex="1">
          <mxGeometry x="280" y="60" width="140" height="70" as="geometry" />
        </mxCell>
        <mxCell id="gJLsM6TIpu4voqHx21hf-34" style="rounded=0;orthogonalLoop=1;jettySize=auto;html=1;entryX=0.25;entryY=0.1;entryDx=0;entryDy=0;entryPerimeter=0;endArrow=none;endFill=0;" parent="1" source="gJLsM6TIpu4voqHx21hf-33" target="gJLsM6TIpu4voqHx21hf-1" edge="1">
          <mxGeometry relative="1" as="geometry" />
        </mxCell>
        <mxCell id="gJLsM6TIpu4voqHx21hf-35" value="Aprovar TCC" style="ellipse;whiteSpace=wrap;html=1;" parent="1" vertex="1">
          <mxGeometry x="325" y="490" width="140" height="70" as="geometry" />
        </mxCell>
        <mxCell id="gJLsM6TIpu4voqHx21hf-36" style="rounded=0;orthogonalLoop=1;jettySize=auto;html=1;entryX=1;entryY=1;entryDx=0;entryDy=0;entryPerimeter=0;endArrow=none;endFill=0;" parent="1" source="gJLsM6TIpu4voqHx21hf-35" target="gJLsM6TIpu4voqHx21hf-3" edge="1">
          <mxGeometry relative="1" as="geometry" />
        </mxCell>
        <mxCell id="gJLsM6TIpu4voqHx21hf-38" value="&lt;div&gt;&lt;b&gt;Stack definida&lt;/b&gt;&lt;/div&gt;&lt;div&gt;Front: ReactJS&lt;/div&gt;&lt;div&gt;Back: Java (SpringBoot)&lt;/div&gt;&lt;div&gt;BD: PostgreSQL&lt;br&gt;&lt;/div&gt;" style="shape=note;size=20;whiteSpace=wrap;html=1;" parent="1" vertex="1">
          <mxGeometry x="-50" y="30" width="150" height="130" as="geometry" />
        </mxCell>
      </root>
    </mxGraphModel>
  </diagram>
</mxfile>
